<mxfile host="Electron" agent="Mozilla/5.0 (Windows NT 10.0; Win64; x64) AppleWebKit/537.36 (KHTML, like Gecko) draw.io/26.2.2 Chrome/134.0.6998.178 Electron/35.1.2 Safari/537.36" version="26.2.2">
  <diagram name="Page-1" id="kGZNyzyhxtxSnophEQxi">
    <mxGraphModel dx="1894" dy="634" grid="1" gridSize="10" guides="1" tooltips="1" connect="1" arrows="1" fold="1" page="1" pageScale="1" pageWidth="850" pageHeight="1100" math="0" shadow="0">
      <root>
        <mxCell id="0" />
        <mxCell id="1" parent="0" />
        <mxCell id="0R60JClkkXMiejkrq7IR-9" value="RaceFrame" style="swimlane;fontStyle=1;align=center;verticalAlign=top;childLayout=stackLayout;horizontal=1;startSize=30;horizontalStack=0;resizeParent=1;resizeParentMax=0;resizeLast=0;collapsible=1;marginBottom=0;whiteSpace=wrap;html=1;" parent="1" vertex="1">
          <mxGeometry x="50" y="260" width="210" height="130" as="geometry" />
        </mxCell>
        <mxCell id="0R60JClkkXMiejkrq7IR-10" value="- bars: JProgressBar[]&lt;div&gt;- resultLabel: JLabel&lt;/div&gt;&lt;div&gt;- monitor: RaceMonitor&lt;/div&gt;" style="text;strokeColor=none;fillColor=none;align=left;verticalAlign=top;spacingLeft=4;spacingRight=4;overflow=hidden;rotatable=0;points=[[0,0.5],[1,0.5]];portConstraint=eastwest;whiteSpace=wrap;html=1;" parent="0R60JClkkXMiejkrq7IR-9" vertex="1">
          <mxGeometry y="30" width="210" height="50" as="geometry" />
        </mxCell>
        <mxCell id="0R60JClkkXMiejkrq7IR-11" value="" style="line;strokeWidth=1;fillColor=none;align=left;verticalAlign=middle;spacingTop=-1;spacingLeft=3;spacingRight=3;rotatable=0;labelPosition=right;points=[];portConstraint=eastwest;strokeColor=inherit;" parent="0R60JClkkXMiejkrq7IR-9" vertex="1">
          <mxGeometry y="80" width="210" height="8" as="geometry" />
        </mxCell>
        <mxCell id="0R60JClkkXMiejkrq7IR-12" value="+ RaceFrame(): void&lt;div&gt;+ startRace(): void&lt;/div&gt;" style="text;strokeColor=none;fillColor=none;align=left;verticalAlign=top;spacingLeft=4;spacingRight=4;overflow=hidden;rotatable=0;points=[[0,0.5],[1,0.5]];portConstraint=eastwest;whiteSpace=wrap;html=1;" parent="0R60JClkkXMiejkrq7IR-9" vertex="1">
          <mxGeometry y="88" width="210" height="42" as="geometry" />
        </mxCell>
        <mxCell id="0R60JClkkXMiejkrq7IR-13" value="RacerThread&lt;div&gt;&lt;br&gt;&lt;/div&gt;" style="swimlane;fontStyle=1;align=center;verticalAlign=top;childLayout=stackLayout;horizontal=1;startSize=30;horizontalStack=0;resizeParent=1;resizeParentMax=0;resizeLast=0;collapsible=1;marginBottom=0;whiteSpace=wrap;html=1;" parent="1" vertex="1">
          <mxGeometry x="50" y="450" width="230" height="170" as="geometry" />
        </mxCell>
        <mxCell id="0R60JClkkXMiejkrq7IR-14" value="- name: String&lt;div&gt;- bar: JProgressBar&lt;/div&gt;&lt;div&gt;- monitor: RaceMonitor&lt;/div&gt;&lt;div&gt;- rand: Random&lt;/div&gt;" style="text;strokeColor=none;fillColor=none;align=left;verticalAlign=top;spacingLeft=4;spacingRight=4;overflow=hidden;rotatable=0;points=[[0,0.5],[1,0.5]];portConstraint=eastwest;whiteSpace=wrap;html=1;" parent="0R60JClkkXMiejkrq7IR-13" vertex="1">
          <mxGeometry y="30" width="230" height="70" as="geometry" />
        </mxCell>
        <mxCell id="0R60JClkkXMiejkrq7IR-15" value="" style="line;strokeWidth=1;fillColor=none;align=left;verticalAlign=middle;spacingTop=-1;spacingLeft=3;spacingRight=3;rotatable=0;labelPosition=right;points=[];portConstraint=eastwest;strokeColor=inherit;" parent="0R60JClkkXMiejkrq7IR-13" vertex="1">
          <mxGeometry y="100" width="230" height="8" as="geometry" />
        </mxCell>
        <mxCell id="0R60JClkkXMiejkrq7IR-16" value="+ RacerThread(name: String, bar: JProgressBar, monitor: RaceMonitor)&lt;div&gt;+ run(): void&lt;/div&gt;" style="text;strokeColor=none;fillColor=none;align=left;verticalAlign=top;spacingLeft=4;spacingRight=4;overflow=hidden;rotatable=0;points=[[0,0.5],[1,0.5]];portConstraint=eastwest;whiteSpace=wrap;html=1;" parent="0R60JClkkXMiejkrq7IR-13" vertex="1">
          <mxGeometry y="108" width="230" height="62" as="geometry" />
        </mxCell>
        <mxCell id="0R60JClkkXMiejkrq7IR-19" value="RaceProgressBar" style="swimlane;fontStyle=1;align=center;verticalAlign=top;childLayout=stackLayout;horizontal=1;startSize=30;horizontalStack=0;resizeParent=1;resizeParentMax=0;resizeLast=0;collapsible=1;marginBottom=0;whiteSpace=wrap;html=1;" parent="1" vertex="1">
          <mxGeometry x="-210" y="290" width="180" height="70" as="geometry" />
        </mxCell>
        <mxCell id="0R60JClkkXMiejkrq7IR-21" value="" style="line;strokeWidth=1;fillColor=none;align=left;verticalAlign=middle;spacingTop=-1;spacingLeft=3;spacingRight=3;rotatable=0;labelPosition=right;points=[];portConstraint=eastwest;strokeColor=inherit;" parent="0R60JClkkXMiejkrq7IR-19" vertex="1">
          <mxGeometry y="30" width="180" height="8" as="geometry" />
        </mxCell>
        <mxCell id="0R60JClkkXMiejkrq7IR-22" value="&lt;div&gt;+ main(args: String[]): void&lt;/div&gt;" style="text;strokeColor=none;fillColor=none;align=left;verticalAlign=top;spacingLeft=4;spacingRight=4;overflow=hidden;rotatable=0;points=[[0,0.5],[1,0.5]];portConstraint=eastwest;whiteSpace=wrap;html=1;" parent="0R60JClkkXMiejkrq7IR-19" vertex="1">
          <mxGeometry y="38" width="180" height="32" as="geometry" />
        </mxCell>
        <mxCell id="8iMxyw2KAPDMMO-1yeLD-14" style="edgeStyle=orthogonalEdgeStyle;rounded=0;orthogonalLoop=1;jettySize=auto;html=1;entryX=1;entryY=0.5;entryDx=0;entryDy=0;endSize=12;endArrow=diamondThin;endFill=0;exitX=0.301;exitY=1.008;exitDx=0;exitDy=0;exitPerimeter=0;" edge="1" parent="1" source="8iMxyw2KAPDMMO-1yeLD-4" target="0R60JClkkXMiejkrq7IR-14">
          <mxGeometry relative="1" as="geometry">
            <mxPoint x="430" y="410" as="sourcePoint" />
            <Array as="points">
              <mxPoint x="440" y="515" />
            </Array>
          </mxGeometry>
        </mxCell>
        <mxCell id="8iMxyw2KAPDMMO-1yeLD-1" value="RaceMonitor" style="swimlane;fontStyle=1;align=center;verticalAlign=top;childLayout=stackLayout;horizontal=1;startSize=30;horizontalStack=0;resizeParent=1;resizeParentMax=0;resizeLast=0;collapsible=1;marginBottom=0;whiteSpace=wrap;html=1;" vertex="1" parent="1">
          <mxGeometry x="350" y="240" width="300" height="150" as="geometry" />
        </mxCell>
        <mxCell id="8iMxyw2KAPDMMO-1yeLD-2" value="- total: int&lt;div&gt;- finished: int&lt;/div&gt;&lt;div&gt;- places: String[]&lt;/div&gt;&lt;div&gt;- labelToUpdate: JLabel&lt;/div&gt;" style="text;strokeColor=none;fillColor=none;align=left;verticalAlign=top;spacingLeft=4;spacingRight=4;overflow=hidden;rotatable=0;points=[[0,0.5],[1,0.5]];portConstraint=eastwest;whiteSpace=wrap;html=1;" vertex="1" parent="8iMxyw2KAPDMMO-1yeLD-1">
          <mxGeometry y="30" width="300" height="70" as="geometry" />
        </mxCell>
        <mxCell id="8iMxyw2KAPDMMO-1yeLD-3" value="" style="line;strokeWidth=1;fillColor=none;align=left;verticalAlign=middle;spacingTop=-1;spacingLeft=3;spacingRight=3;rotatable=0;labelPosition=right;points=[];portConstraint=eastwest;strokeColor=inherit;" vertex="1" parent="8iMxyw2KAPDMMO-1yeLD-1">
          <mxGeometry y="100" width="300" height="8" as="geometry" />
        </mxCell>
        <mxCell id="8iMxyw2KAPDMMO-1yeLD-4" value="+ RaceMonitor(total: int, labelToUpdate: JLabel)&lt;div&gt;+ finished(name: String): synchronized void&lt;span style=&quot;background-color: transparent; color: light-dark(rgb(0, 0, 0), rgb(255, 255, 255));&quot;&gt;&amp;nbsp;&lt;/span&gt;&lt;/div&gt;" style="text;strokeColor=none;fillColor=none;align=left;verticalAlign=top;spacingLeft=4;spacingRight=4;overflow=hidden;rotatable=0;points=[[0,0.5],[1,0.5]];portConstraint=eastwest;whiteSpace=wrap;html=1;" vertex="1" parent="8iMxyw2KAPDMMO-1yeLD-1">
          <mxGeometry y="108" width="300" height="42" as="geometry" />
        </mxCell>
        <mxCell id="8iMxyw2KAPDMMO-1yeLD-11" style="edgeStyle=orthogonalEdgeStyle;rounded=0;orthogonalLoop=1;jettySize=auto;html=1;endSize=12;endArrow=none;endFill=1;startArrow=diamondThin;startFill=1;startSize=12;" edge="1" parent="1" source="0R60JClkkXMiejkrq7IR-9">
          <mxGeometry relative="1" as="geometry">
            <mxPoint x="350" y="325" as="targetPoint" />
            <Array as="points">
              <mxPoint x="349" y="325" />
            </Array>
          </mxGeometry>
        </mxCell>
        <mxCell id="8iMxyw2KAPDMMO-1yeLD-12" style="edgeStyle=orthogonalEdgeStyle;rounded=0;orthogonalLoop=1;jettySize=auto;html=1;entryX=0.548;entryY=1.008;entryDx=0;entryDy=0;entryPerimeter=0;endSize=12;endArrow=diamondThin;endFill=1;" edge="1" parent="1" source="0R60JClkkXMiejkrq7IR-13" target="0R60JClkkXMiejkrq7IR-12">
          <mxGeometry relative="1" as="geometry" />
        </mxCell>
        <mxCell id="8iMxyw2KAPDMMO-1yeLD-13" style="edgeStyle=orthogonalEdgeStyle;rounded=0;orthogonalLoop=1;jettySize=auto;html=1;entryX=0.002;entryY=0.713;entryDx=0;entryDy=0;entryPerimeter=0;endSize=12;endArrow=diamondThin;endFill=1;" edge="1" parent="1" source="0R60JClkkXMiejkrq7IR-19" target="0R60JClkkXMiejkrq7IR-10">
          <mxGeometry relative="1" as="geometry" />
        </mxCell>
      </root>
    </mxGraphModel>
  </diagram>
</mxfile>
